<svg id="white" xmlns="http://www.w3.org/2000/svg" viewBox="0 0 184.65 46.1"><defs><style>.cls-1{fill:#fff;}</style></defs><title>htc_vive</title><path class="cls-1" d="M35.3,38.4a30.93,30.93,0,0,1-18.4,0,7,7,0,0,1-4.8-8,30.14,30.14,0,0,1,9.3-16.3,7,7,0,0,1,9.5,0,31.06,31.06,0,0,1,9.3,16.3,7,7,0,0,1-4.9,8m16.5-3.2L32.4,1.7A3.24,3.24,0,0,0,29.5,0H22.8a3.24,3.24,0,0,0-2.9,1.7L.4,35.2a3.43,3.43,0,0,0,0,3.4l3.4,5.8a3.24,3.24,0,0,0,2.9,1.7H45.4a3.24,3.24,0,0,0,2.9-1.7l3.4-5.8a3.22,3.22,0,0,0,.1-3.4" transform="translate(0.05 0)"/><path class="cls-1" d="M150.9,13.4l-11.7,23a1.1,1.1,0,0,1-1,.6h-3.9a1.1,1.1,0,0,1-1-.6l-11.7-23a1.27,1.27,0,0,1,0-1.2l1.2-2.2a1.39,1.39,0,0,1,1.2-.7h1.1a.84.84,0,0,1,.7.4l9.8,19.5a.57.57,0,0,0,1,0l9.8-19.5a.67.67,0,0,1,.7-.4h1.1a1.52,1.52,0,0,1,1.2.7l1.3,2.2a.93.93,0,0,1,.2,1.2" transform="translate(0.05 0)"/><path class="cls-1" d="M93.1,13.4l-11.7,23a1.1,1.1,0,0,1-1,.6H76.5a1.1,1.1,0,0,1-1-.6l-11.7-23a1.28,1.28,0,0,1,0-1.2L65.1,10a1.39,1.39,0,0,1,1.2-.7h1.1a.84.84,0,0,1,.7.4l9.8,19.5a.57.57,0,0,0,1,0L88.7,9.7a.67.67,0,0,1,.7-.4h1.1a1.52,1.52,0,0,1,1.2.7L93,12.2a1.63,1.63,0,0,1,.1,1.2" transform="translate(0.05 0)"/><path class="cls-1" d="M109.9,9.6a1.14,1.14,0,0,0-.8-.3h-1.8a1.52,1.52,0,0,0-1.2.7l-1.2,2.2a1.42,1.42,0,0,0-.2.6V35.9a1.11,1.11,0,0,0,1.1,1.1H109a1.11,1.11,0,0,0,1.1-1.1V10.4a1.08,1.08,0,0,0-.2-.8" transform="translate(0.05 0)"/><path class="cls-1" d="M164.1,10a1.39,1.39,0,0,1,1.2-.7H182a1.23,1.23,0,0,1,1.1.7l1.2,2a1.69,1.69,0,0,1,.3,1v.5a.79.79,0,0,1-.8.8H168.5a.65.65,0,0,0-.6.6v5.2a.58.58,0,0,0,.6.6h10.3a.9.9,0,0,1,.9.9v3a.9.9,0,0,1-.9.9H168.5a.58.58,0,0,0-.6.6v5.4a.58.58,0,0,0,.6.6h15.3a.79.79,0,0,1,.8.8v.5a1.93,1.93,0,0,1-.3,1l-1.2,2a1.36,1.36,0,0,1-1.1.7H165.3a1.52,1.52,0,0,1-1.2-.7l-1.2-2a1.69,1.69,0,0,1-.3-1V13a1.93,1.93,0,0,1,.3-1Z" transform="translate(0.05 0)"/></svg>