<?xml version="1.0" encoding="utf-8"?>
<!-- Generator: Adobe Illustrator 24.0.0, SVG Export Plug-In . SVG Version: 6.00 Build 0)  -->
<svg version="1.1"
	 id="Layer_1" inkscape:version="0.92.3 (2405546, 2018-03-11)" sodipodi:docname="Oculus_Quest_logo_black-crop.svg" xmlns:cc="http://creativecommons.org/ns#" xmlns:dc="http://purl.org/dc/elements/1.1/" xmlns:inkscape="http://www.inkscape.org/namespaces/inkscape" xmlns:rdf="http://www.w3.org/1999/02/22-rdf-syntax-ns#" xmlns:sodipodi="http://sodipodi.sourceforge.net/DTD/sodipodi-0.dtd" xmlns:svg="http://www.w3.org/2000/svg"
	 xmlns="http://www.w3.org/2000/svg" xmlns:xlink="http://www.w3.org/1999/xlink" x="0px" y="0px" viewBox="0 0 1633.7 185.3"
	 style="enable-background:new 0 0 1633.7 185.3;" xml:space="preserve">
<style type="text/css">
	.st0{fill:#FFFFFF;}
</style>
<g id="g30" transform="translate(-223.963,-246.304)">
	<path id="path2" inkscape:connector-curvature="0" class="st0" d="M496.4,267.3c-10.8-8.6-23.2-14.7-36.6-17.9
		c-7.7-1.9-15.4-2.6-23.3-2.9c-5.9-0.2-11.7-0.2-17.6-0.2c-27.6,0-55.4,0-83.1,0c-5.9,0-11.7,0-17.6,0.2c-7.9,0.3-15.6,1.1-23.3,2.9
		c-13.4,3.2-25.8,9.3-36.6,17.9c-21.8,17.4-34.4,43.8-34.4,71.6c0,27.9,12.7,54.2,34.4,71.6c10.8,8.6,23.2,14.7,36.6,17.9
		c7.7,1.9,15.4,2.6,23.3,2.9c5.9,0.2,11.7,0.2,17.6,0.2c27.6,0,55.4,0,83.1,0c5.9,0,11.7,0,17.6-0.2c7.9-0.3,15.6-1.1,23.3-2.9
		c13.4-3.2,25.8-9.3,36.6-17.9c21.8-17.4,34.4-43.8,34.4-71.6C530.9,311,518.2,284.7,496.4,267.3L496.4,267.3z M456,363.8
		c-4.2,2.8-8.6,4.5-13.6,5.2s-9.7,0.6-14.7,0.6c-33.5,0-67.2,0-100.7,0c-4.9,0-9.7,0.2-14.7-0.6c-4.9-0.8-9.4-2.5-13.6-5.2
		c-8.2-5.7-13.1-15-13.1-24.9c0-10,4.9-19.3,13.1-24.9c4.2-2.8,8.6-4.5,13.6-5.2c4.9-0.8,9.7-0.6,14.7-0.6c33.5,0,67.2,0,100.7,0
		c4.9,0,9.7-0.2,14.7,0.6c4.9,0.8,9.4,2.5,13.6,5.2c8.2,5.7,13.1,15,13.1,24.9C469.1,349,464.2,358.2,456,363.8L456,363.8z"/>
	<g id="g16">
		<path id="path4" inkscape:connector-curvature="0" class="st0" d="M674.6,285.3c-14.1,0-27.9,5.2-38,15.4
			c-10.1,10.1-15.2,24-15.3,38.1c0,14.1,5,28,15,38.2c10,10.2,23.7,15.6,37.9,15.6c14.1,0,27.9-5.2,38-15.4
			c10.1-10.1,15.2-24,15.2-38.1c0-14.1-5-28-15-38.2C702.5,290.7,688.7,285.3,674.6,285.3z M702.9,345.2c-0.4,2-0.9,3.9-1.7,5.8
			c-0.7,1.8-1.6,3.5-2.6,5.1c-1,1.5-2.1,3-3.4,4.3c-1.3,1.3-2.7,2.5-4.2,3.5c-1.6,1-3.2,1.9-5,2.6c-1.8,0.7-3.7,1.3-5.6,1.6
			c-2,0.4-4,0.6-6,0.6c-2,0-4-0.2-6-0.6c-1.9-0.4-3.8-0.9-5.6-1.7c-1.7-0.7-3.4-1.6-5-2.6c-1.5-1-2.9-2.2-4.2-3.5
			c-1.3-1.3-2.4-2.8-3.4-4.3c-1-1.6-1.9-3.3-2.6-5.1c-0.7-1.9-1.3-3.8-1.6-5.8c-0.4-2-0.6-4.1-0.5-6.2c0-2.1,0.2-4.1,0.6-6.2
			c0.4-2,0.9-3.9,1.7-5.8c0.7-1.8,1.6-3.5,2.6-5.1c1-1.5,2.1-3,3.4-4.3c1.3-1.3,2.7-2.5,4.2-3.5c1.6-1,3.2-1.9,5-2.6
			c1.8-0.7,3.7-1.3,5.6-1.6c2-0.4,4-0.6,6-0.6c2,0,4,0.2,6,0.6c1.9,0.4,3.8,0.9,5.6,1.7c1.7,0.7,3.4,1.6,5,2.6
			c1.5,1,2.9,2.2,4.2,3.5c1.3,1.3,2.4,2.8,3.4,4.3c1,1.6,1.9,3.3,2.6,5.1c0.7,1.9,1.3,3.8,1.6,5.8c0.4,2,0.6,4.1,0.5,6.2
			C703.5,341.1,703.3,343.2,702.9,345.2L702.9,345.2z"/>
		<path id="path6" inkscape:connector-curvature="0" class="st0" d="M1107.4,335.9c0,2.8,0,5.7-0.2,8.6c-0.1,1.8-0.3,3.7-0.7,5.5
			c-0.6,3.4-1.7,6.6-3.6,9.5c-4.5,7.1-12.5,10.6-20.6,10.7c-8.2,0.1-16-3.3-20.4-10.6c-1.8-3-2.8-6.2-3.5-9.6
			c-0.9-4.5-1.1-9.3-1.2-13.8c-0.1-3-0.1-6-0.1-8.9c0-5.1,0-10.3,0-15.4c0-8.1,0-16.3,0-24.4c-8.1,0-16.3,0-24.4,0
			c0,8,0,33.3,0,41.6c0,4,0.1,8.1,0.2,12.1c0.1,2.9,0.2,5.9,0.5,8.8c0.6,6.9,1.9,13.7,5,20c6.5,13,19,20.5,33,22.2
			c6.9,0.8,13.9,0.2,20.5-1.7c6.4-1.9,13.1-5.2,17.8-10.1c0.2,3.3,0.5,6.7,0.7,9.9c7.1,0,14.9,0,21.3,0c0-33.7,0-69,0-102.7
			c-8,0-16.2,0-24.3,0C1107.4,293.8,1107.4,329.4,1107.4,335.9L1107.4,335.9z"/>
		<path id="path8" inkscape:connector-curvature="0" class="st0" d="M1238.4,349.9c-3.5-9.9-12.2-16-21.3-19.6
			c-5.1-2-10.4-3.3-15.8-4.5c-2.4-0.5-4.7-1-7-1.6c-2-0.5-4-1.1-5.9-2c-2-0.9-4.1-2.1-5.6-3.9c-1.2-1.5-1.9-3.3-1.6-5.3
			c0.3-2.3,1.7-4.2,3.4-5.6c1.2-1,2.6-1.7,4-2.3c1.9-0.7,3.8-1.1,5.8-1.4c4-0.5,8-0.1,11.9,0.7c5.9,1.2,11.4,3.6,16.5,6.7
			c4.1-5.6,8.1-11.1,12.2-16.7c-8.1-5.9-17.4-9.7-27.3-11.2c-5.5-0.8-11.2-0.9-16.8-0.2c-4.3,0.6-8.5,1.6-12.5,3.3
			c-5.4,2.2-10.1,5.5-13.8,10c-2.7,3.3-4.6,7-5.7,11.1c-1.4,5-1.4,10.3,0.2,15.4c1.5,4.6,4.1,8.5,7.8,11.7c7.6,6.6,18.2,9,27.4,11
			c3.2,0.7,6.4,1.4,9.6,2.3c2.6,0.7,5.2,1.7,7.5,3.1c1.8,1.1,3.5,2.5,4.6,4.4c0.9,1.6,1.4,3.4,1.2,5.2c-0.2,1.7-0.9,3.3-1.9,4.6
			c-1.2,1.6-2.9,2.8-4.7,3.7c-2.3,1.2-4.9,1.8-7.5,2.1c-3.6,0.5-7.3,0.4-10.9-0.1c-4-0.5-7.8-1.4-11.5-2.8
			c-5.7-2.1-10.7-5.1-15.6-8.8c-4.3,5.8-8.7,11.6-13,17.4c7.7,6.4,16.5,11.1,26.2,13.9c5.4,1.5,10.7,2.4,16.3,2.6
			c4.5,0.2,8.9-0.1,13.3-0.9c5.7-1,11.2-2.8,16.2-5.8c3.6-2.2,6.8-4.9,9.4-8.3c3.3-4.3,5.5-9.5,6.3-14.9
			C1240.3,358.7,1239.9,354.2,1238.4,349.9L1238.4,349.9z"/>
		<path id="path10" inkscape:connector-curvature="0" class="st0" d="M806.4,367.7c-5.7,1.3-11.7,1.1-17.3-0.7
			c-5.6-1.8-10.5-5.3-13.9-10.2c-3.4-4.8-5.2-10.6-5.5-16.4c-0.3-5.8,0.8-11.8,3.5-17c2.8-5.4,7.1-9.2,12.7-11.6
			c2.4-1,4.8-1.7,7.4-2.2c3.3-0.6,6.5-0.6,9.8-0.2c5.9,0.7,11.3,2.9,16.3,6c4.9-6.2,9.8-12.4,14.7-18.7
			c-8.5-6.7-18.1-10.6-28.8-11.7c-10.4-1.1-21.2,0.5-30.7,5c-9.7,4.6-17.4,11.9-22.4,21.4c-5,9.3-7.1,20-6.6,30.5
			c0.5,10.5,3.6,20.9,9.7,29.6c6.2,8.8,14.8,15,24.9,18.5c9.9,3.4,20.9,4,31.1,1.8c10.3-2.2,19.9-7.2,27.2-14.9
			c-5.6-5.8-11.2-11.5-16.7-17.3C817.4,363.7,812.1,366.4,806.4,367.7L806.4,367.7z"/>
		<rect id="rect12" x="980.9" y="246.3" class="st0" width="25.7" height="143.8"/>
		<path id="path14" inkscape:connector-curvature="0" class="st0" d="M928.2,335.9c0,2.8,0,5.7-0.2,8.6c-0.1,1.8-0.3,3.7-0.7,5.5
			c-0.6,3.4-1.7,6.6-3.6,9.5c-4.5,7.1-12.5,10.6-20.6,10.7c-8.2,0.1-16-3.3-20.4-10.6c-1.8-3-2.8-6.2-3.5-9.6
			c-0.9-4.5-1.1-9.3-1.2-13.8c-0.1-3-0.1-6-0.1-8.9c0-5.1,0-10.3,0-15.4c0-8.1,0-16.3,0-24.4c-8.1,0-16.3,0-24.4,0
			c0,8,0,33.3,0,41.6c0,4,0.1,8.1,0.2,12.1c0.1,2.9,0.2,5.9,0.5,8.8c0.6,6.9,1.9,13.7,5,20c6.5,13,19,20.5,33,22.2
			c6.9,0.8,13.9,0.2,20.5-1.7c6.4-1.9,13.1-5.2,17.8-10.1c0.2,3.3,0.5,6.7,0.7,9.9c7.1,0,14.3,0,20.7,0c0-33.7,0-69,0-102.7
			c-8,0-15.7,0-23.8,0C928.2,293.8,928.2,329.4,928.2,335.9L928.2,335.9z"/>
	</g>
	<g id="g28">
		<path id="path18" inkscape:connector-curvature="0" class="st0" d="M1527.1,341.6c-0.2,17.7-7.8,28.5-25.2,28.5
			c-17.3,0-24.1-13-24.1-29.5v-53.2l-24.5-0.2v55.5c0,28.3,15.9,49.5,42.9,49.5c16.5,0,26.5-4.8,33.5-12.5l0.5,10.2h21.3V287.5
			h-24.5V341.6z"/>
		<path id="path20" inkscape:connector-curvature="0" class="st0" d="M1403.8,303.2L1403.8,303.2c-5.1-10.1-18.3-18-34.8-18
			c-30.3,0-49.7,25-49.7,53.6c0,28.5,19.4,53.6,49.7,53.6c15.6,0,27.8-6.9,33.6-16.3v48.9h24.5V287.5h-22.7L1403.8,303.2z
			 M1372.8,370.9c-18,0-29.3-14-29.3-32.2c0-18.2,11.3-32.2,29.3-32.2c16.9,0,29.7,14.4,29.7,32.2S1389.7,370.9,1372.8,370.9z"/>
		<path id="path22" inkscape:connector-curvature="0" class="st0" d="M1624.3,285.1c-29.7,0-53.6,23.5-53.6,53.4
			c0,30.5,20.2,53.8,53.8,53.8c22.5,0,38-9.9,46.8-25.8l-19.6-11.6c-4.5,9.5-12.2,16.9-26.8,16.9c-16.3,0-27.1-10.5-29.1-25.6h79.8
			v-7.4C1675.6,309.2,1654.8,285.1,1624.3,285.1z M1624,305.3c14.6,0,24.8,9.4,27.5,21.9h-54.9
			C1599.8,314.4,1610.3,305.3,1624,305.3L1624,305.3z"/>
		<path id="path24" inkscape:connector-curvature="0" class="st0" d="M1744.7,327.8l-12.2-2.7c-8.3-1.9-13-4.7-13-10.9
			c0-5.6,6.6-9.5,16.3-9.5c10.5,0,18.8,3.3,25,7.6l12.2-16.5c-9.9-7.6-22.3-10.7-37.7-10.7c-22.5,0-39,11.6-39,30.9
			c0,16.9,11.6,24.5,31.8,29.3l10.5,2.5c11.5,2.7,16.5,6.4,16.5,12.6c0,7-7.8,11.6-19,11.6c-12.6,0-22.9-4.5-32.6-12.4l-13,17.3
			c12,11.3,27.8,15.7,46.4,15.7c24.1,0,41-13.4,41-34.4C1777.9,343.2,1766.8,332.7,1744.7,327.8L1744.7,327.8z"/>
		<path id="path26" inkscape:connector-curvature="0" class="st0" d="M1857.6,307.4v-20h-25.8l0.2-28.1h-24.8l0.2,28.1h-18.4v20
			h18.4v49.3c0,23.7,9.7,35.5,31.2,35.5c7,0,13.8-1.2,17.7-2.9v-19.6c-2.3,1-6.4,2.1-11.3,2.1c-9.3,0-13.2-3.9-13.2-13.8v-50.7
			L1857.6,307.4L1857.6,307.4z"/>
	</g>
</g>
</svg>
