<?xml version="1.0" encoding="utf-8"?>
<!-- Generator: Adobe Illustrator 24.0.0, SVG Export Plug-In . SVG Version: 6.00 Build 0)  -->
<svg version="1.1"
	 id="Layer_1" inkscape:version="0.92.3 (2405546, 2018-03-11)" sodipodi:docname="OCULUS_RIFT-S_Black.svg" xmlns:cc="http://creativecommons.org/ns#" xmlns:dc="http://purl.org/dc/elements/1.1/" xmlns:inkscape="http://www.inkscape.org/namespaces/inkscape" xmlns:rdf="http://www.w3.org/1999/02/22-rdf-syntax-ns#" xmlns:sodipodi="http://sodipodi.sourceforge.net/DTD/sodipodi-0.dtd" xmlns:svg="http://www.w3.org/2000/svg"
	 xmlns="http://www.w3.org/2000/svg" xmlns:xlink="http://www.w3.org/1999/xlink" x="0px" y="0px" viewBox="0 0 1514.6 184.7"
	 style="enable-background:new 0 0 1514.6 184.7;" xml:space="preserve">
<style type="text/css">
	.st0{fill:#FFFFFF;}
</style>
<sodipodi:namedview  bordercolor="#666666" borderopacity="1" gridtolerance="10" guidetolerance="10" id="namedview41" inkscape:current-layer="Layer_1" inkscape:cx="946.0178" inkscape:cy="231.27201" inkscape:pageopacity="0" inkscape:pageshadow="2" inkscape:window-height="833" inkscape:window-maximized="1" inkscape:window-width="1600" inkscape:window-x="0" inkscape:window-y="0" inkscape:zoom="0.482325" objecttolerance="10" pagecolor="#ffffff" showgrid="false">
	</sodipodi:namedview>
<g id="g38" transform="translate(-283.493,-246.592)">
	<g id="g4">
		<path id="path2" inkscape:connector-curvature="0" class="st0" d="M555.1,267.5c-10.8-8.6-23.1-14.6-36.5-17.9
			c-7.7-1.8-15.4-2.6-23.2-2.9c-5.8-0.2-11.7-0.2-17.5-0.2c-27.5,0-55.3,0-82.8,0c-5.8,0-11.7,0-17.5,0.2
			c-7.8,0.3-15.5,1.1-23.2,2.9c-13.4,3.2-25.7,9.2-36.5,17.9c-21.7,17.4-34.3,43.7-34.3,71.4c0,27.9,12.6,54,34.3,71.4
			c10.8,8.6,23.1,14.6,36.5,17.9c7.7,1.8,15.4,2.6,23.2,2.9c5.8,0.2,11.7,0.2,17.5,0.2c27.5,0,55.3,0,82.8,0c5.8,0,11.7,0,17.5-0.2
			c7.8-0.3,15.5-1.1,23.2-2.9c13.4-3.2,25.7-9.2,36.5-17.9c21.7-17.4,34.3-43.7,34.3-71.4C589.4,311.1,576.8,284.9,555.1,267.5z
			 M514.8,363.7c-4.2,2.8-8.6,4.5-13.5,5.2s-9.7,0.6-14.6,0.6c-33.4,0-66.9,0-100.3,0c-4.9,0-9.7,0.2-14.6-0.6s-9.4-2.5-13.5-5.2
			c-8.2-5.7-13.1-14.9-13.1-24.8c0-10,4.9-19.2,13.1-24.8c4.2-2.8,8.6-4.5,13.5-5.2s9.7-0.6,14.6-0.6c33.4,0,66.9,0,100.3,0
			c4.9,0,9.7-0.2,14.6,0.6s9.4,2.5,13.5,5.2c8.2,5.7,13.1,14.9,13.1,24.8C527.9,348.9,523,358.2,514.8,363.7z"/>
	</g>
	<path id="path6" inkscape:connector-curvature="0" class="st0" d="M732.7,285.5c-14.1,0-27.8,5.2-37.8,15.3
		c-10,10.1-15.2,23.9-15.2,38c0,14,5,27.9,14.9,38.1c9.9,10.2,23.7,15.5,37.7,15.6c14.1,0,27.8-5.2,37.8-15.3
		c10-10.1,15.2-23.9,15.2-38c0-14-5-27.9-14.9-38.1C760.5,290.8,746.8,285.5,732.7,285.5z M760.9,345.2c-0.4,2-0.9,3.9-1.7,5.8
		c-0.7,1.8-1.6,3.5-2.6,5.1c-1,1.5-2.1,3-3.4,4.3c-1.3,1.3-2.7,2.4-4.2,3.4c-1.6,1-3.2,1.9-5,2.6c-1.8,0.7-3.7,1.3-5.6,1.6
		c-2,0.4-4,0.6-6,0.5c-2,0-4-0.2-6-0.6c-1.9-0.4-3.8-0.9-5.6-1.7c-1.7-0.7-3.4-1.6-5-2.6c-1.5-1-2.9-2.2-4.2-3.5
		c-1.3-1.3-2.4-2.7-3.4-4.3c-1-1.6-1.9-3.3-2.6-5.1c-0.7-1.9-1.3-3.8-1.6-5.8c-0.4-2-0.6-4.1-0.5-6.2s0.2-4.1,0.6-6.2
		c0.4-2,0.9-3.9,1.7-5.8c0.7-1.8,1.6-3.5,2.6-5.1c1-1.5,2.1-3,3.4-4.3c1.3-1.3,2.7-2.4,4.2-3.4c1.6-1,3.2-1.9,5-2.6
		c1.8-0.7,3.7-1.3,5.6-1.6c2-0.4,4-0.6,6-0.5c2,0,4,0.2,6,0.6c1.9,0.4,3.8,0.9,5.6,1.7c1.7,0.7,3.4,1.6,5,2.6c1.5,1,2.9,2.2,4.2,3.5
		c1.3,1.3,2.4,2.7,3.4,4.3c1,1.6,1.9,3.3,2.6,5.1c0.7,1.9,1.3,3.8,1.6,5.8c0.4,2,0.6,4.1,0.5,6.2
		C761.5,341.1,761.3,343.2,760.9,345.2L760.9,345.2z"/>
	<path id="path8" inkscape:connector-curvature="0" class="st0" d="M1164.2,335.9c0,2.8,0,5.7-0.2,8.5c-0.1,1.8-0.3,3.7-0.7,5.4
		c-0.6,3.4-1.7,6.6-3.6,9.5c-4.5,7.1-12.4,10.5-20.5,10.7c-8.2,0.1-16-3.3-20.4-10.6c-1.8-3-2.8-6.2-3.5-9.6
		c-0.9-4.5-1.1-9.2-1.2-13.8c-0.1-3-0.1-5.9-0.1-8.9c0-5.1,0-10.3,0-15.4c0-8,0-16.3,0-24.3c-8.1,0-16.2,0-24.3,0c0,8,0,33.2,0,41.5
		c0,4,0.1,8.1,0.2,12c0.1,2.9,0.2,5.9,0.5,8.8c0.6,6.9,1.9,13.6,5,19.9c6.4,12.9,18.9,20.4,32.9,22.1c6.8,0.8,13.9,0.2,20.5-1.7
		c6.3-1.9,13.1-5.2,17.8-10.1c0.2,3.3,0.5,6.7,0.7,9.9c7.1,0,14.8,0,21.2,0c0-33.6,0-68.8,0-102.4c-8,0-16.2,0-24.3,0
		C1164.2,294,1164.2,329.4,1164.2,335.9L1164.2,335.9z"/>
	<path id="path10" inkscape:connector-curvature="0" class="st0" d="M1294.7,349.9c-3.5-9.9-12.2-15.9-21.2-19.5
		c-5.1-2-10.4-3.3-15.8-4.4c-2.3-0.5-4.7-1-7-1.6c-2-0.5-4-1.1-5.9-2c-2-0.9-4.1-2.1-5.5-3.9c-1.2-1.5-1.9-3.3-1.6-5.3
		c0.3-2.3,1.7-4.2,3.4-5.6c1.2-1,2.5-1.7,4-2.2c1.9-0.7,3.8-1.1,5.8-1.4c4-0.5,8-0.1,11.9,0.7c5.9,1.2,11.3,3.6,16.4,6.7
		c4.1-5.6,8.1-11.1,12.2-16.7c-8.1-5.9-17.4-9.6-27.3-11.1c-5.5-0.8-11.2-0.9-16.7-0.2c-4.3,0.6-8.4,1.6-12.5,3.3
		c-5.3,2.2-10.1,5.5-13.8,10c-2.7,3.3-4.6,7-5.7,11.1c-1.4,5-1.4,10.3,0.2,15.3c1.5,4.6,4.1,8.5,7.8,11.6c7.6,6.6,18.2,9,27.3,10.9
		c3.2,0.7,6.4,1.3,9.5,2.3c2.5,0.7,5.2,1.7,7.5,3c1.8,1.1,3.5,2.5,4.6,4.3c0.9,1.6,1.4,3.4,1.2,5.2c-0.2,1.7-0.9,3.3-1.9,4.6
		c-1.2,1.6-2.9,2.8-4.7,3.7c-2.3,1.2-4.9,1.8-7.5,2.1c-3.6,0.5-7.3,0.4-10.8-0.1c-4-0.5-7.7-1.4-11.5-2.8
		c-5.7-2.1-10.7-5.1-15.5-8.8c-4.3,5.8-8.6,11.5-13,17.3c7.7,6.4,16.4,11.1,26.1,13.9c5.4,1.5,10.7,2.4,16.3,2.6
		c4.5,0.2,8.8-0.1,13.3-0.9c5.6-1,11.2-2.8,16.1-5.7c3.6-2.2,6.8-4.9,9.4-8.3c3.3-4.3,5.5-9.5,6.3-14.9
		C1296.6,358.7,1296.3,354.1,1294.7,349.9L1294.7,349.9z"/>
	<path id="path12" inkscape:connector-curvature="0" class="st0" d="M864.1,367.6c-5.7,1.3-11.7,1.1-17.3-0.7
		c-5.6-1.8-10.4-5.3-13.9-10.1c-3.4-4.8-5.2-10.6-5.5-16.4c-0.3-5.7,0.8-11.8,3.5-16.9c2.8-5.4,7.1-9.2,12.6-11.6
		c2.4-1,4.8-1.7,7.3-2.1c3.3-0.6,6.5-0.6,9.8-0.2c5.9,0.7,11.3,2.9,16.3,6c4.9-6.2,9.8-12.4,14.7-18.6c-8.5-6.7-18-10.5-28.7-11.7
		c-10.4-1.1-21.2,0.5-30.6,5c-9.7,4.6-17.3,11.9-22.4,21.3c-4.9,9.3-7,20-6.5,30.4c0.5,10.4,3.6,20.8,9.7,29.5
		c6.1,8.8,14.7,15,24.8,18.4c9.9,3.4,20.8,4,31,1.8c10.3-2.2,19.8-7.1,27.2-14.8c-5.6-5.7-11.1-11.5-16.7-17.2
		C875.1,363.6,869.8,366.3,864.1,367.6L864.1,367.6z"/>
	<rect id="rect14" x="1038.1" y="246.6" class="st0" width="25.6" height="143.4"/>
	<path id="path16" inkscape:connector-curvature="0" class="st0" d="M985.5,335.9c0,2.8,0,5.7-0.2,8.5c-0.1,1.8-0.3,3.7-0.7,5.4
		c-0.6,3.4-1.7,6.6-3.6,9.5c-4.5,7.1-12.4,10.5-20.5,10.7c-8.2,0.1-16-3.3-20.4-10.6c-1.8-3-2.8-6.2-3.5-9.6
		c-0.9-4.5-1.1-9.2-1.2-13.8c-0.1-3-0.1-5.9-0.1-8.9c0-5.1,0-10.3,0-15.4c0-8,0-16.3,0-24.3c-8.1,0-16.2,0-24.3,0c0,8,0,33.2,0,41.5
		c0,4,0.1,8.1,0.2,12c0.1,2.9,0.2,5.9,0.5,8.8c0.6,6.9,1.9,13.6,5,19.9c6.4,12.9,18.9,20.4,32.9,22.1c6.8,0.8,13.9,0.2,20.5-1.7
		c6.3-1.9,13.1-5.2,17.8-10.1c0.2,3.3,0.5,6.7,0.7,9.9c7.1,0,14.3,0,20.7,0c0-33.6,0-68.8,0-102.4c-8,0-15.6,0-23.7,0
		C985.6,294,985.6,329.4,985.5,335.9L985.5,335.9z"/>
	<path id="path18" inkscape:connector-curvature="0" class="st0" d="M1398.2,390.5h-24V288h24v22.2c3.2-7.3,7.7-13.3,13.4-17.7
		c5.9-4.6,13.5-6.8,22.6-6.4l0.2,0v25.1h-1.6c-5.1,0-9.8,0.8-14,2.5c-4.2,1.7-7.9,4.2-10.9,7.5c-3.1,3.3-5.5,7.6-7.1,12.6
		c-1.7,5-2.5,11-2.5,17.6V390.5z"/>
	<path id="path20" inkscape:connector-curvature="0" class="st0" d="M1796.5,348.6c-3.5-9.9-12.2-15.9-21.2-19.5
		c-5.1-2-10.4-3.3-15.8-4.4c-2.3-0.5-4.7-1-7-1.6c-2-0.5-4-1.1-5.9-2c-2-0.9-4.1-2.1-5.5-3.9c-1.2-1.5-1.9-3.3-1.6-5.3
		c0.3-2.3,1.7-4.2,3.4-5.6c1.2-1,2.5-1.7,4-2.2c1.9-0.7,3.8-1.1,5.8-1.4c4-0.5,8-0.1,11.9,0.7c5.9,1.2,11.3,3.6,16.4,6.7
		c4.1-5.6,8.1-11.1,12.2-16.7c-8.1-5.9-17.4-9.6-27.3-11.1c-5.5-0.8-11.2-0.9-16.7-0.2c-4.3,0.6-8.4,1.6-12.5,3.3
		c-5.3,2.2-10.1,5.5-13.8,10c-2.7,3.3-4.6,7-5.7,11.1c-1.4,5-1.4,10.3,0.2,15.3c1.5,4.6,4.1,8.5,7.8,11.6c7.6,6.6,18.2,9,27.3,10.9
		c3.2,0.7,6.4,1.3,9.5,2.3c2.5,0.7,5.2,1.7,7.5,3c1.8,1.1,3.5,2.5,4.6,4.3c0.9,1.6,1.4,3.4,1.2,5.2c-0.2,1.7-0.9,3.3-1.9,4.6
		c-1.2,1.6-2.9,2.8-4.7,3.7c-2.3,1.2-4.9,1.8-7.5,2.1c-3.6,0.5-7.3,0.4-10.8-0.1c-4-0.5-7.7-1.4-11.5-2.8
		c-5.7-2.1-10.7-5.1-15.5-8.8c-4.3,5.8-8.6,11.5-13,17.3c7.7,6.4,16.4,11.1,26.1,13.9c5.4,1.5,10.7,2.4,16.3,2.6
		c4.5,0.2,8.8-0.1,13.3-0.9c5.6-1,11.2-2.8,16.1-5.7c3.6-2.2,6.8-4.9,9.4-8.3c3.3-4.3,5.5-9.5,6.3-14.9
		C1798.4,357.4,1798.1,352.9,1796.5,348.6L1796.5,348.6z"/>
	<g id="g24">
		<path id="path22" inkscape:connector-curvature="0" class="st0" d="M1476.2,390.5h-24V288h24V390.5z"/>
	</g>
	<g id="g28">
		<path id="path26" inkscape:connector-curvature="0" class="st0" d="M1537,390.5h-24v-82h-19.4v-19.9h19.4v-7.1
			c0-11.3,2.8-19.9,8.4-25.5c5.5-5.4,13.3-8.2,23.3-8.2c4.1,0,7.7,0.3,10.7,0.8c3,0.5,5.8,1.2,8.3,1.9l0.1,0v20.2l-0.3-0.1
			c-2.3-0.8-4.5-1.4-6.6-1.8c-2.1-0.4-4.5-0.7-7-0.7c-8.8,0-13.3,5.1-13.3,15.3v5.4h27.1v19.7H1537L1537,390.5L1537,390.5z"/>
	</g>
	<g id="g32">
		<path id="path30" inkscape:connector-curvature="0" class="st0" d="M1624.7,392.2c-4.3,0-8.3-0.5-11.9-1.6c-3.6-1-6.9-2.7-9.5-5.1
			c-2.7-2.3-4.8-5.4-6.2-9.3c-1.4-3.8-2.2-8.6-2.2-14.3v-53.6h-19V288h19v-28h24v28h27.5v20.5h-27.5v49.9c0,4.4,1.1,7.7,3.2,9.6
			c2.1,2,5.2,2.9,9.1,2.9c5,0,9.8-1.2,14.4-3.5l0.3-0.1v19.6l-0.1,0.1c-3,1.7-6.2,3-9.5,3.9C1633,391.8,1629.1,392.2,1624.7,392.2z"
			/>
	</g>
	<g id="g36">
		<circle id="circle34" class="st0" cx="1464.2" cy="261.1" r="13"/>
	</g>
</g>
</svg>
