<svg id="Layer_1" data-name="Layer 1" xmlns="http://www.w3.org/2000/svg" viewBox="0 0 435.79 82.97"><defs><style>.cls-1{fill:#fff;}</style></defs><title>valve_index</title><path class="cls-1" d="M211.9,73.65h11.8c.71,1.72,1.41,3.42,2.09,5h4.56Q225,66.16,219.76,53.94h-3.92L205.28,78.73h4.52Zm5.76-14.24h.28L222.24,70h-8.88C214.81,66.42,216.24,62.92,217.66,59.41Z" transform="translate(-1.51 -22.31)"/><path class="cls-1" d="M235.77,53.94V78.71H251c0-1.2,0-2.35,0-3.64H239.92V53.94Z" transform="translate(-1.51 -22.31)"/><path class="cls-1" d="M194.54,73.05l-.28,0q-3.73-9.55-7.48-19.1h-4.53l10.08,24.74h4.14c3.37-8.25,6.72-16.46,10.12-24.77H202Z" transform="translate(-1.51 -22.31)"/><path class="cls-1" d="M84.25,105.05v-40a41.49,41.49,0,1,0,0-2.51V22.31a41.37,41.37,0,0,0,0,82.74Z" transform="translate(-1.51 -22.31)"/><path class="cls-1" d="M1.51,63.68a41.37,41.37,0,0,0,41.37,41.37V22.31A41.37,41.37,0,0,0,1.51,63.68Z" transform="translate(-1.51 -22.31)"/><path class="cls-1" d="M294.6,57.51V54H279V78.7h16V75h-11.7V67.81h9.95V64.3h-9.95V57.51Z" transform="translate(-1.51 -22.31)"/><path class="cls-1" d="M264.14,78.73c3.37-8.26,6.72-16.47,10.13-24.79h-4.56l-7.49,19.13H262Q258.2,63.51,254.47,54h-4.53L260,78.73Z" transform="translate(-1.51 -22.31)"/><path class="cls-1" d="M383.3,66.17c0-7.33-5.29-12.34-13.05-12.34H359.67V78.51h10.58C378,78.51,383.3,73.44,383.3,66.17Zm-13.61,4.94h-1.76V61.24h1.76c3.21,0,5.22,1.9,5.22,4.93S372.9,71.11,369.69,71.11Z" transform="translate(-1.51 -22.31)"/><polygon class="cls-1" points="404.44 38.15 404.44 31.52 387.55 31.52 387.55 56.2 404.62 56.2 404.62 49.57 395.66 49.57 395.66 46.89 403.52 46.89 403.52 40.83 395.66 40.83 395.66 38.15 404.44 38.15"/><rect class="cls-1" x="309.91" y="31.52" width="8.39" height="24.68"/><polygon class="cls-1" points="343.11 56.2 349.81 56.2 349.81 31.52 341.98 31.52 341.98 42.69 333.52 31.52 326.57 31.52 326.57 56.2 334.4 56.2 334.4 44.53 343.11 56.2"/><polygon class="cls-1" points="435.44 31.52 426.17 31.52 422.96 38.12 419.75 31.52 410.48 31.52 417.39 43.51 410.13 56.2 419.51 56.2 422.98 49.37 426.45 56.2 426.45 56.21 435.79 56.21 428.56 43.52 435.44 31.52"/></svg>