<svg id="Layer_1" data-name="Layer 1" xmlns="http://www.w3.org/2000/svg" viewBox="0 0 342.33 85.45"><defs><style>.cls-1{fill:#fff;}</style></defs><title>windowsmr</title><path class="cls-1" d="M0,15.41,30.5,11.26V40.69L0,40.87Zm30.5,28.67,0,29.47L0,69.35V43.89Zm3.7-33.37,40.47-5.9V40.32l-40.47.32ZM74.65,44.36V79.71L34.18,74l-.06-29.7Z" transform="translate(0.02 -2.23)"/><path class="cls-1" d="M154.71,4.73,142.39,48.37h-6l-9-31.9a19.47,19.47,0,0,1-.7-4.44h-.13a22.09,22.09,0,0,1-.79,4.38l-9,32h-5.93L98.05,4.73h5.63L113,38.2a21.55,21.55,0,0,1,.73,4.38h.15a25.78,25.78,0,0,1,1-4.38l9.64-33.47h4.9l9.25,33.72a23.71,23.71,0,0,1,.73,4.07h.13a24.16,24.16,0,0,1,.82-4.2l8.91-33.59Z" transform="translate(0.02 -2.23)"/><path class="cls-1" d="M162.15,9.29a3.16,3.16,0,0,1-2.29-.91,3.08,3.08,0,0,1-.94-2.31,3.19,3.19,0,0,1,3.23-3.26,3.21,3.21,0,0,1,2.32.93,3.1,3.1,0,0,1,1,2.33,3.08,3.08,0,0,1-1,2.28A3.18,3.18,0,0,1,162.15,9.29Zm2.43,39.08h-5V17.21h5Z" transform="translate(0.02 -2.23)"/><path class="cls-1" d="M199.61,48.37h-5V30.6q0-9.93-7.24-9.93a7.85,7.85,0,0,0-6.19,2.82,10.45,10.45,0,0,0-2.45,7.11V48.37h-5V17.21h5v5.17h.12a11.24,11.24,0,0,1,10.23-5.91c3.4,0,6,1.11,7.82,3.31s2.7,5.38,2.7,9.54Z" transform="translate(0.02 -2.23)"/><path class="cls-1" d="M234.68,48.37h-5v-5.3h-.12a12.57,12.57,0,0,1-20.1,1.84q-3.53-4.19-3.52-11.39,0-7.74,3.9-12.39a12.84,12.84,0,0,1,10.37-4.66q6.42,0,9.35,5.06h.12V2.23h5Zm-5-14.09v-4.6a8.91,8.91,0,0,0-2.5-6.39,8.38,8.38,0,0,0-6.33-2.62A8.63,8.63,0,0,0,213.68,24c-1.74,2.23-2.62,5.32-2.62,9.25q0,5.38,2.51,8.51a8.23,8.23,0,0,0,6.75,3.12,8.54,8.54,0,0,0,6.77-3A11.22,11.22,0,0,0,229.69,34.28Z" transform="translate(0.02 -2.23)"/><path class="cls-1" d="M256.87,49.1q-6.9,0-11-4.37t-4.12-11.58q0-7.84,4.29-12.26t11.59-4.42q7,0,10.88,4.3t3.91,11.89q0,7.47-4.21,12T256.87,49.1Zm.37-28.43A9.49,9.49,0,0,0,249.63,24c-1.87,2.18-2.8,5.18-2.8,9q0,5.53,2.83,8.73a9.63,9.63,0,0,0,7.58,3.2,9.14,9.14,0,0,0,7.44-3.14q2.6-3.13,2.6-8.91t-2.6-9A9.1,9.1,0,0,0,257.24,20.67Z" transform="translate(0.02 -2.23)"/><path class="cls-1" d="M318.69,17.21l-9.35,31.16h-5.17l-6.42-22.31a13.9,13.9,0,0,1-.49-2.89h-.12A13.35,13.35,0,0,1,296.5,26l-7,22.37h-5l-9.43-31.16h5.23l6.45,23.43a13.46,13.46,0,0,1,.43,2.8h.24a13.18,13.18,0,0,1,.55-2.86l7.18-23.37h4.57l6.45,23.49a16.91,16.91,0,0,1,.45,2.8h.25a12.56,12.56,0,0,1,.52-2.8l6.33-23.49Z" transform="translate(0.02 -2.23)"/><path class="cls-1" d="M321.65,47.24V41.88a14.74,14.74,0,0,0,9,3q6.58,0,6.58-4.38a3.77,3.77,0,0,0-.57-2.12,5.55,5.55,0,0,0-1.52-1.54,12.45,12.45,0,0,0-2.25-1.2l-2.79-1.11a35.2,35.2,0,0,1-3.63-1.66A10.94,10.94,0,0,1,323.82,31a7,7,0,0,1-1.58-2.39,8.4,8.4,0,0,1-.53-3.14,7.45,7.45,0,0,1,1-3.88,8.92,8.92,0,0,1,2.68-2.83,12.56,12.56,0,0,1,3.82-1.72,17.14,17.14,0,0,1,4.43-.58,18,18,0,0,1,7.24,1.4v5.06A14.12,14.12,0,0,0,333,20.67a9.36,9.36,0,0,0-2.53.32,6.5,6.5,0,0,0-1.93.9,4.12,4.12,0,0,0-1.25,1.39,3.67,3.67,0,0,0-.44,1.78,4.33,4.33,0,0,0,.44,2,4.64,4.64,0,0,0,1.29,1.46,10,10,0,0,0,2.07,1.15c.81.35,1.74.72,2.77,1.13a39.26,39.26,0,0,1,3.72,1.63,12.48,12.48,0,0,1,2.79,1.88,7.2,7.2,0,0,1,1.78,2.42,8.57,8.57,0,0,1-.39,7.28,8.77,8.77,0,0,1-2.73,2.83,12.51,12.51,0,0,1-3.92,1.67,19.63,19.63,0,0,1-4.66.55A17.62,17.62,0,0,1,321.65,47.24Z" transform="translate(0.02 -2.23)"/><path class="cls-1" d="M129.36,79.71H126.6V63.8c0-1.25.08-2.79.23-4.61h-.07a14.13,14.13,0,0,1-.71,2.3L118,79.71h-1.36l-8.08-18.09a14,14,0,0,1-.72-2.43h-.06c.09,1,.13,2.5.13,4.65V79.71h-2.68V56h3.67l7.28,16.54a20.72,20.72,0,0,1,1.09,2.84h.1q.71-1.95,1.14-2.91L125.89,56h3.47Z" transform="translate(0.02 -2.23)"/><path class="cls-1" d="M136.11,58.48a1.73,1.73,0,0,1-1.24-.5,1.67,1.67,0,0,1-.51-1.25,1.72,1.72,0,0,1,.51-1.27,1.69,1.69,0,0,1,1.24-.5,1.74,1.74,0,0,1,1.79,1.77,1.71,1.71,0,0,1-.52,1.24A1.75,1.75,0,0,1,136.11,58.48Zm1.33,21.23h-2.72V62.78h2.72Z" transform="translate(0.02 -2.23)"/><path class="cls-1" d="M154.79,62.78l-5.69,8.57,5.59,8.36h-3.16l-3.32-5.49q-.32-.51-.75-1.29h-.06l-.78,1.29-3.39,5.49H140.1l5.77-8.3-5.52-8.63h3.16l3.27,5.79c.25.43.48.87.71,1.32h.07l4.23-7.11Z" transform="translate(0.02 -2.23)"/><path class="cls-1" d="M170.8,71.93h-12a6.3,6.3,0,0,0,1.52,4.36,5.22,5.22,0,0,0,4,1.54,8.31,8.31,0,0,0,5.26-1.89v2.55a9.85,9.85,0,0,1-5.91,1.62,7.16,7.16,0,0,1-5.64-2.31A9.46,9.46,0,0,1,156,71.31a9.28,9.28,0,0,1,2.24-6.44,7.2,7.2,0,0,1,5.57-2.49A6.36,6.36,0,0,1,169,64.53a9,9,0,0,1,1.82,6ZM168,69.63A5.49,5.49,0,0,0,166.89,66a3.86,3.86,0,0,0-3.1-1.31A4.38,4.38,0,0,0,160.53,66a6.23,6.23,0,0,0-1.65,3.59Z" transform="translate(0.02 -2.23)"/><path class="cls-1" d="M188.85,79.71h-2.71V76.84h-.07a6.84,6.84,0,0,1-10.92,1,9.31,9.31,0,0,1-1.91-6.2,10.16,10.16,0,0,1,2.11-6.73A7,7,0,0,1,181,62.38a5.43,5.43,0,0,1,5.08,2.75h.07V54.64h2.71Zm-2.71-7.65v-2.5a4.81,4.81,0,0,0-1.36-3.47,4.54,4.54,0,0,0-3.44-1.43,4.69,4.69,0,0,0-3.9,1.82,8,8,0,0,0-1.42,5,7.16,7.16,0,0,0,1.36,4.62,4.46,4.46,0,0,0,3.66,1.7,4.64,4.64,0,0,0,3.68-1.64A6.06,6.06,0,0,0,186.14,72.06Z" transform="translate(0.02 -2.23)"/><path class="cls-1" d="M220,79.71h-3.31l-4-6.64a13.48,13.48,0,0,0-1.06-1.58,5.94,5.94,0,0,0-1-1.07,3.38,3.38,0,0,0-1.16-.6,4.63,4.63,0,0,0-1.39-.19h-2.29V79.71H203V56H210a10,10,0,0,1,2.87.39,6.47,6.47,0,0,1,2.29,1.18,5.51,5.51,0,0,1,1.51,2,7.12,7.12,0,0,1,.17,5,5.71,5.71,0,0,1-1.06,1.84,6.19,6.19,0,0,1-1.65,1.38,8.11,8.11,0,0,1-2.17.89v.07a4.65,4.65,0,0,1,1,.6,5.66,5.66,0,0,1,.83.8,10.26,10.26,0,0,1,.79,1c.26.39.55.85.87,1.37Zm-14.23-21.2v8.6h3.78a5.69,5.69,0,0,0,1.92-.31,4.49,4.49,0,0,0,1.53-.9,4,4,0,0,0,1-1.44,4.89,4.89,0,0,0,.36-1.91,3.72,3.72,0,0,0-1.23-3,5.29,5.29,0,0,0-3.56-1.07Z" transform="translate(0.02 -2.23)"/><path class="cls-1" d="M235,71.93h-12a6.35,6.35,0,0,0,1.53,4.36,5.22,5.22,0,0,0,4,1.54,8.31,8.31,0,0,0,5.26-1.89v2.55a9.85,9.85,0,0,1-5.91,1.62,7.16,7.16,0,0,1-5.64-2.31,9.46,9.46,0,0,1-2.05-6.49,9.28,9.28,0,0,1,2.24-6.44,7.2,7.2,0,0,1,5.57-2.49,6.37,6.37,0,0,1,5.14,2.15,9,9,0,0,1,1.82,6Zm-2.78-2.3A5.49,5.49,0,0,0,231.11,66a3.86,3.86,0,0,0-3.1-1.31A4.38,4.38,0,0,0,224.75,66a6.23,6.23,0,0,0-1.65,3.59Z" transform="translate(0.02 -2.23)"/><path class="cls-1" d="M250.74,79.71H248V77.07H248a5.68,5.68,0,0,1-5.21,3,5.57,5.57,0,0,1-4-1.34,4.61,4.61,0,0,1-1.43-3.55q0-4.75,5.59-5.53L248,69q0-4.32-3.48-4.32A8.35,8.35,0,0,0,239,66.75V64a10.52,10.52,0,0,1,5.76-1.59q6,0,6,6.32ZM248,71.15l-4.08.56a6.69,6.69,0,0,0-2.84.93,2.71,2.71,0,0,0-1,2.38,2.57,2.57,0,0,0,.88,2,3.4,3.4,0,0,0,2.36.79,4.34,4.34,0,0,0,3.33-1.42A5,5,0,0,0,248,72.83Z" transform="translate(0.02 -2.23)"/><path class="cls-1" d="M258.05,79.71h-2.71V54.64h2.71Z" transform="translate(0.02 -2.23)"/><path class="cls-1" d="M264.42,58.48a1.73,1.73,0,0,1-1.24-.5,1.67,1.67,0,0,1-.51-1.25,1.72,1.72,0,0,1,.51-1.27,1.69,1.69,0,0,1,1.24-.5,1.74,1.74,0,0,1,1.27.5,1.69,1.69,0,0,1,.52,1.27,1.67,1.67,0,0,1-.52,1.24A1.75,1.75,0,0,1,264.42,58.48Zm1.33,21.23H263V62.78h2.72Z" transform="translate(0.02 -2.23)"/><path class="cls-1" d="M278.58,79.55a5.25,5.25,0,0,1-2.53.53c-3,0-4.44-1.66-4.44-5v-10h-2.92V62.78h2.92V58.64l2.71-.87v5h4.26v2.31h-4.26v9.55a3.94,3.94,0,0,0,.58,2.43,2.3,2.3,0,0,0,1.91.73,2.8,2.8,0,0,0,1.77-.57Z" transform="translate(0.02 -2.23)"/><path class="cls-1" d="M295.18,62.78l-7.79,19.65c-1.39,3.5-3.34,5.26-5.86,5.26a6.37,6.37,0,0,1-1.77-.22V85a5,5,0,0,0,1.61.3c1.36,0,2.39-.82,3.07-2.45l1.36-3.21-6.61-16.9h3l4.59,13c.05.17.17.6.34,1.29h.1q.09-.39.33-1.26l4.82-13.06Z" transform="translate(0.02 -2.23)"/></svg>